<?xml version="1.0" ?><svg id="Layer_1" style="enable-background:new 0 0 128 128;" version="1.1" viewBox="0 0 128 128" xml:space="preserve" xmlns="http://www.w3.org/2000/svg" xmlns:xlink="http://www.w3.org/1999/xlink"><style type="text/css">
	.st0{fill:#F1F2F4;}
	.st1{fill:#464C54;}
	.st2{fill:#C9C9C9;}
	.st3{fill:#F6CA47;}
	.st4{fill:#BFCC58;}
	.st5{fill:#FFFFFF;}
	.st6{fill:#627148;}
	.st7{fill:#0076B9;}
	.st8{fill:#00A6E4;}
	.st9{fill:none;stroke:#FFFFFF;stroke-width:6;stroke-linecap:round;stroke-linejoin:round;stroke-miterlimit:10;}
	.st10{fill:#464C54;stroke:#464C54;stroke-width:6;stroke-linecap:round;stroke-linejoin:round;stroke-miterlimit:10;}
	.st11{fill:#E8E8E8;}
	.st12{fill:#D65B36;}
	.st13{fill:#D65B4D;}
	.st14{fill:none;stroke:#464C54;stroke-width:6;stroke-linecap:round;stroke-linejoin:round;stroke-miterlimit:10;}
</style><g><circle class="st5" cx="92" cy="75.47" r="17.47"/></g><g><path class="st4" d="M112.47,63.47c0-11.32-9.18-20.5-20.5-20.5s-20.5,9.18-20.5,20.5H112.47z"/></g><g><circle class="st5" cx="36" cy="75.47" r="17.47"/></g><g><path class="st4" d="M56.53,63.47c0-11.32-9.18-20.5-20.5-20.5s-20.5,9.18-20.5,20.5H56.53z"/></g><g><path class="st5" d="M87,68c0,12.7-10.3,23-23,23S41,80.7,41,68c0-2.81,0-17,0-17h46C87,51,87,63.87,87,68z"/></g><g><path class="st4" d="M68.38,124.02c-6.4-11.26-18.5-18.85-32.37-18.85h0c-13.88,0-25.98,7.6-32.38,18.85L3.68,127h64.63   L68.38,124.02z"/></g><g><path class="st1" d="M3.62,127.02c-0.5,0-1.01-0.13-1.48-0.39c-1.44-0.82-1.94-2.65-1.13-4.09c5.22-9.19,14.03-16.07,24.17-18.9   c1.6-0.45,3.25,0.49,3.7,2.08c0.45,1.6-0.49,3.25-2.08,3.7c-8.62,2.4-16.12,8.27-20.56,16.08C5.68,126.47,4.67,127.02,3.62,127.02z   "/></g><g><path class="st4" d="M59.62,124.02c6.4-11.26,18.5-18.85,32.37-18.85h0c13.88,0,25.98,7.6,32.38,18.85l-0.06,2.98H59.68   L59.62,124.02z"/></g><g><path class="st1" d="M124.38,127.02c-1.04,0-2.06-0.55-2.61-1.52c-4.44-7.82-11.94-13.68-20.56-16.08c-1.6-0.44-2.53-2.1-2.08-3.7   c0.44-1.6,2.1-2.53,3.7-2.08c10.14,2.83,18.95,9.71,24.17,18.9c0.82,1.44,0.31,3.27-1.13,4.09   C125.39,126.89,124.88,127.02,124.38,127.02z"/></g><g><path class="st6" d="M101.07,123.59C93.74,110.7,79.89,102,64,102h0c-15.89,0-29.74,8.7-37.07,21.59L27,127h74L101.07,123.59z"/></g><g><path class="st1" d="M26.93,127c-0.5,0-1.01-0.13-1.48-0.39c-1.44-0.82-1.94-2.65-1.13-4.09c8.1-14.25,23.3-23.11,39.68-23.11   c16.38,0,31.58,8.85,39.68,23.1c0.82,1.44,0.31,3.27-1.13,4.09c-1.44,0.82-3.27,0.31-4.09-1.13C91.42,113.1,78.22,105.41,64,105.41   c-14.22,0-27.43,7.69-34.46,20.07C28.99,126.45,27.97,127,26.93,127z"/></g><g><path class="st1" d="M64,94c-14.34,0-26-11.66-26-26c0-1.66,1.34-3,3-3s3,1.34,3,3c0,11.03,8.97,20,20,20s20-8.97,20-20   c0-1.66,1.34-3,3-3s3,1.34,3,3C90,82.34,78.34,94,64,94z"/></g><g><path class="st4" d="M90,56c0-14.36-11.64-26-26-26S38,41.64,38,56H90z"/><path class="st1" d="M90,59H38c-1.66,0-3-1.34-3-3c0-15.99,13.01-29,29-29s29,13.01,29,29C93,57.66,91.66,59,90,59z M41.19,53   h45.61C85.33,41.73,75.67,33,64,33S42.67,41.73,41.19,53z"/></g><g><path class="st5" d="M64,88c-0.78,0-1.57-0.05-2.35-0.14c-1.65-0.19-2.82-1.68-2.63-3.33c0.19-1.65,1.68-2.82,3.33-2.63   c1.06,0.12,2.16,0.13,3.22,0.01c1.65-0.18,3.13,1,3.31,2.65c0.18,1.65-1,3.13-2.65,3.31C65.5,87.96,64.75,88,64,88z"/></g><g><path class="st4" d="M82,121H72c-1.66,0-3,1.34-3,3v3h16v-3C85,122.34,83.66,121,82,121z"/></g><g><path class="st1" d="M101.58,42.02c-1.51-0.68-3.29,0-3.96,1.51s0,3.29,1.51,3.96c5.36,2.4,9.1,7.31,10.09,12.98H96.47   c-1.66,0-3,1.34-3,3s1.34,3,3,3h6.84c2.03,2.55,3.16,5.71,3.16,9c0,7.98-6.49,14.47-14.47,14.47c-0.89,0-1.77-0.08-2.63-0.24   c-1.63-0.3-3.19,0.78-3.49,2.41c-0.3,1.63,0.78,3.19,2.41,3.49c1.22,0.22,2.47,0.34,3.72,0.34c11.29,0,20.47-9.18,20.47-20.47   c0-3.15-0.72-6.22-2.08-9h2.08c1.66,0,3-1.34,3-3C115.47,54.22,110.01,45.8,101.58,42.02z"/><path class="st1" d="M38.63,89.7c-0.86,0.16-1.75,0.24-2.63,0.24c-7.98,0-14.47-6.49-14.47-14.47c0-3.28,1.12-6.45,3.16-9h6.84   c1.66,0,3-1.34,3-3s-1.34-3-3-3H18.79c0.99-5.66,4.73-10.57,10.09-12.98c1.51-0.68,2.19-2.45,1.51-3.96s-2.45-2.19-3.96-1.51   c-8.44,3.78-13.89,12.21-13.89,21.45c0,1.66,1.34,3,3,3h2.1c-1.36,2.78-2.1,5.86-2.1,9c0,11.29,9.18,20.47,20.47,20.47   c1.25,0,2.5-0.11,3.72-0.34c1.63-0.3,2.71-1.86,2.41-3.49C41.83,90.48,40.27,89.4,38.63,89.7z"/></g></svg>